<svg width="24" height="24" viewBox="0 0 24 24" fill="none" xmlns="http://www.w3.org/2000/svg">
<path fill-rule="evenodd" clip-rule="evenodd" d="M7 2.5C7 2.69539 6.96264 2.88206 6.89467 3.05325L8.48943 6.24276C9.59476 6.0846 10.7768 6 12 6C13.2232 6 14.4053 6.0846 15.5106 6.24276L17.1053 3.05329C17.0374 2.88209 17 2.69541 17 2.5C17 1.67157 17.6716 1 18.5 1C19.3284 1 20 1.67157 20 2.5C20 3.192 19.5314 3.77455 18.8942 3.94766L17.5487 6.63877C18.2311 6.80994 18.8662 7.01259 19.4425 7.2431C20.417 7.63292 21.2728 8.1221 21.9013 8.71646C22.5319 9.31282 23 10.0841 23 11V19C23 19.7102 22.5145 20.2788 22.0651 20.6563C21.565 21.0764 20.8648 21.4696 19.984 21.8083C18.2155 22.4885 15.5874 23 12 23C8.4126 23 5.78448 22.4885 4.01602 21.8083C3.13524 21.4696 2.43502 21.0764 1.93493 20.6563C1.48546 20.2788 0.999996 19.7102 1 19V11C1 10.0841 1.46814 9.31282 2.09874 8.71646C2.72723 8.1221 3.58299 7.63292 4.55754 7.2431C5.13383 7.01258 5.76897 6.80994 6.45136 6.63877L5.10581 3.94767C4.46861 3.77458 4 3.19201 4 2.5C4 1.67157 4.67157 1 5.5 1C6.32843 1 7 1.67157 7 2.5ZM7.37026 8.47656C6.60059 8.64746 5.90416 8.85851 5.30032 9.10005C4.46523 9.43409 3.85653 9.80683 3.47296 10.1696C3.0915 10.5303 3 10.8113 3 11C3 11.1887 3.0915 11.4697 3.47296 11.8304C3.85653 12.1932 4.46523 12.5659 5.30032 12.9C6.96497 13.5658 9.33323 14 12 14C14.6668 14 17.035 13.5658 18.6997 12.9C19.5348 12.5659 20.1435 12.1932 20.527 11.8304C20.9085 11.4697 21 11.1887 21 11C21 10.8113 20.9085 10.5303 20.527 10.1696C20.1435 9.80683 19.5348 9.43409 18.6997 9.10005C18.0958 8.85852 17.3994 8.64747 16.6298 8.47657L15.8947 9.94676C15.9626 10.1179 16 10.3046 16 10.5C16 11.3284 15.3284 12 14.5 12C13.6716 12 13 11.3284 13 10.5C13 9.80798 13.4686 9.22542 14.1058 9.05233L14.5628 8.13839C13.7521 8.04866 12.8928 8 12 8C11.1072 8 10.2479 8.04866 9.43724 8.13839L9.89422 9.05234C10.5314 9.22544 11 9.808 11 10.5C11 11.3284 10.3284 12 9.5 12C8.67157 12 8 11.3284 8 10.5C8 10.3046 8.03736 10.1179 8.10534 9.94672L7.37026 8.47656ZM19.4425 14.7569C20.0089 14.5303 20.5351 14.2702 21 13.9754V18.8999C20.9735 18.9374 20.9115 19.0133 20.7787 19.1249C20.4975 19.3611 20.0102 19.6554 19.266 19.9417C18.662 20.174 17.9101 20.3927 17 20.5704V15.4898C17.8925 15.2948 18.7144 15.0481 19.4425 14.7569ZM15 15.8244V20.8594C14.1063 20.9485 13.108 21 12 21C10.892 21 9.89372 20.9485 9 20.8594V15.8244C9.956 15.9392 10.9632 16 12 16C13.0368 16 14.044 15.9392 15 15.8244ZM7 15.4898C6.10751 15.2948 5.28556 15.0481 4.55754 14.7569C3.99114 14.5303 3.46486 14.2702 3 13.9754V18.8999C3.02652 18.9374 3.08847 19.0133 3.22132 19.1249C3.50248 19.3611 3.98976 19.6554 4.73398 19.9417C5.33795 20.174 6.0899 20.3927 7 20.5704V15.4898Z" fill="currentColor"/>
</svg>
