<svg width="24" height="24" viewBox="0 0 24 24" fill="none" xmlns="http://www.w3.org/2000/svg">
<path fill-rule="evenodd" clip-rule="evenodd" d="M14.5 10H18V22C18 22.5523 18.4477 23 19 23C19.5523 23 20 22.5523 20 22V10H21C21.5523 10 22 9.55228 22 9V2C22 1.44772 21.5523 1 21 1H14.5C12.0147 1 10 3.01472 10 5.5C10 7.98528 12.0147 10 14.5 10ZM12 5.5C12 4.11929 13.1193 3 14.5 3H16V8H14.5C13.1193 8 12 6.88071 12 5.5ZM20 8H18V3H20V8Z" fill="currentColor"/>
<path fill-rule="evenodd" clip-rule="evenodd" d="M3 10C2.44772 10 2 10.4477 2 11V18C2 18.5523 2.44772 19 3 19H4V22C4 22.5523 4.44772 23 5 23C5.55228 23 6 22.5523 6 22V19H9.5C11.9853 19 14 16.9853 14 14.5C14 12.0147 11.9853 10 9.5 10H3ZM9.5 17H8V12H9.5C10.8807 12 12 13.1193 12 14.5C12 15.8807 10.8807 17 9.5 17ZM4 12H6V17H4V12Z" fill="currentColor"/>
</svg>
