<svg width="24" height="24" viewBox="0 0 24 24" fill="none" xmlns="http://www.w3.org/2000/svg">
<path fill-rule="evenodd" clip-rule="evenodd" d="M20.2071 0.792894C20.0102 0.595934 19.74 0.490048 19.4616 0.500738C19.1833 0.511427 18.922 0.637723 18.7407 0.84921L15.7407 4.34921C15.4007 4.74595 15.4234 5.33762 15.7929 5.70711L16.3371 6.25128C16.322 6.26462 16.3073 6.27849 16.2929 6.29289L14.985 7.60079C14.1055 6.79571 13.2969 6.19967 12.5517 5.79894C11.6107 5.29287 10.6936 5.05803 9.83563 5.20099C8.25487 5.46438 7.48709 6.8354 7.14224 8.21406C5.67815 8.67206 4.34925 9.23714 3.29324 10.2928C2.62932 10.9565 1.78308 12.4159 1.56981 14.1934C1.34874 16.0358 1.80908 18.2232 3.79316 20.2071C5.7772 22.191 7.96448 22.6513 9.80684 22.4302C11.5842 22.217 13.0435 21.3708 13.7072 20.7071C14.7632 19.6511 15.3282 18.3218 15.7862 16.8576C17.1646 16.5127 18.5355 15.7449 18.7989 14.1643C18.9419 13.3063 18.7071 12.3893 18.201 11.4482C17.8003 10.7031 17.2043 9.89451 16.3992 9.015L17.7071 7.70711C17.7215 7.6927 17.7354 7.67797 17.7487 7.66293L18.2929 8.20711C18.6624 8.5766 19.2541 8.59932 19.6508 8.25926L23.1508 5.25926C23.3623 5.07798 23.4886 4.81672 23.4993 4.53838C23.51 4.26004 23.4041 3.98985 23.2071 3.79289L20.2071 0.792894ZM11.6045 7.56039C12.1512 7.85437 12.8037 8.32273 13.5692 9.01655L10.1651 12.4207C9.66993 12.1524 9.10276 12 8.5 12C6.567 12 5 13.567 5 15.5C5 17.433 6.567 19 8.5 19C10.433 19 12 17.433 12 15.5C12 14.8972 11.8476 14.3301 11.5793 13.8349L14.9835 10.4308C15.6773 11.1963 16.1456 11.8488 16.4396 12.3955C16.8242 13.1106 16.8706 13.5685 16.8261 13.8355C16.7544 14.266 16.2751 14.7735 14.8357 15.0136C14.4569 15.0768 14.1477 15.3513 14.0402 15.72C13.5555 17.3817 13.0997 18.4862 12.293 19.2929C11.9568 19.6291 10.9161 20.2828 9.56858 20.4445C8.28597 20.5984 6.72329 20.3087 5.20732 18.7928C3.69138 17.277 3.40166 15.7143 3.55557 14.4316C3.71727 13.084 4.37104 12.0433 4.70722 11.7072C5.51409 10.9006 6.61852 10.4446 8.27999 9.95996C8.64869 9.85242 8.92322 9.54321 8.98636 9.16436C9.22628 7.72475 9.7339 7.24551 10.1643 7.17379C10.4314 7.1293 10.8893 7.17578 11.6045 7.56039ZM17.8619 4.9477L19.5565 2.9707L21.0293 4.44352L19.0523 6.13809L17.8619 4.9477ZM7 15.5C7 14.6716 7.67157 14 8.5 14C9.32843 14 10 14.6716 10 15.5C10 16.3284 9.32843 17 8.5 17C7.67157 17 7 16.3284 7 15.5Z" fill="currentColor"/>
</svg>
