<svg width="24" height="24" viewBox="0 0 24 24" fill="none" xmlns="http://www.w3.org/2000/svg">
<path fill-rule="evenodd" clip-rule="evenodd" d="M6.00013 9.95997L6.24612 12.9118L6.99563 20.9067C7.02954 21.2683 6.86465 21.62 6.5649 21.8252C6.26515 22.0304 5.8777 22.0569 5.55279 21.8944L2.10557 20.1708C1.42801 19.832 1 19.1395 1 18.382V14.7386C1 13.8606 1.57264 13.0852 2.41183 12.827L4.18661 12.2809L4.00345 10.083C4.00115 10.0554 4 10.0277 4 10C4 5.58172 7.58172 2 12 2C16.4183 2 20 5.58172 20 10C20 10.0277 19.9988 10.0554 19.9965 10.083L19.8134 12.2809L21.5882 12.827C22.4274 13.0852 23 13.8606 23 14.7386V18.382C23 19.1395 22.572 19.832 21.8944 20.1708L18.4472 21.8944C18.1223 22.0569 17.7348 22.0304 17.4351 21.8252C17.1354 21.62 16.9705 21.2683 17.0044 20.9067L17.7539 12.9118L17.9999 9.95997C17.9783 6.66469 15.3004 4 12 4C8.69964 4 6.02166 6.66469 6.00013 9.95997ZM19.6309 14.3173L19.1638 19.3001L21 18.382V14.7386L19.6309 14.3173ZM4.36911 14.3173L3 14.7386V18.382L4.83625 19.3001L4.36911 14.3173Z" fill="currentColor"/>
</svg>
