<svg width="24" height="24" viewBox="0 0 24 24" fill="none" xmlns="http://www.w3.org/2000/svg">
<path fill-rule="evenodd" clip-rule="evenodd" d="M8 3C8 2.44772 8.44772 2 9 2H10C12.4853 2 14.5 4.01472 14.5 6.5C14.5 7.05228 14.0523 7.5 13.5 7.5C12.9477 7.5 12.5 7.05228 12.5 6.5C12.5 5.11929 11.3807 4 10 4V13C10 15.2091 8.20914 17 6 17C3.79086 17 2 15.2091 2 13C2 10.7909 3.79086 9 6 9C6.72857 9 7.41165 9.19479 8 9.53513V3ZM6 11C7.10457 11 8 11.8954 8 13C8 14.1046 7.10457 15 6 15C4.89543 15 4 14.1046 4 13C4 11.8954 4.89543 11 6 11Z" fill="currentColor"/>
<path fill-rule="evenodd" clip-rule="evenodd" d="M16 8C16 7.44772 16.4477 7 17 7H18C20.4853 7 22.5 9.01472 22.5 11.5C22.5 12.0523 22.0523 12.5 21.5 12.5C20.9477 12.5 20.5 12.0523 20.5 11.5C20.5 10.1193 19.3807 9 18 9V18C18 20.2091 16.2091 22 14 22C11.7909 22 10 20.2091 10 18C10 15.7909 11.7909 14 14 14C14.7286 14 15.4117 14.1948 16 14.5351V8ZM14 16C15.1046 16 16 16.8954 16 18C16 19.1046 15.1046 20 14 20C12.8954 20 12 19.1046 12 18C12 16.8954 12.8954 16 14 16Z" fill="currentColor"/>
</svg>
