<svg width="24" height="24" viewBox="0 0 24 24" fill="none" xmlns="http://www.w3.org/2000/svg">
<path fill-rule="evenodd" clip-rule="evenodd" d="M13 2C12.4477 2 12 2.44772 12 3V12.9996C11.1643 12.3719 10.1256 12 9 12C6.23858 12 4 14.2386 4 17C4 19.7614 6.23858 22 9 22C11.7614 22 14 19.7614 14 17V4C16.2091 4 18 5.79086 18 8C18 8.55228 18.4477 9 19 9C19.5523 9 20 8.55228 20 8C20 4.68629 17.3137 2 14 2H13ZM12 17C12 15.3431 10.6569 14 9 14C7.34315 14 6 15.3431 6 17C6 18.6569 7.34315 20 9 20C10.6569 20 12 18.6569 12 17Z" fill="currentColor"/>
</svg>
