<svg width="24" height="24" viewBox="0 0 24 24" fill="none" xmlns="http://www.w3.org/2000/svg">
<path fill-rule="evenodd" clip-rule="evenodd" d="M10 7.30927V16C10 16 10 16 10 16C9.99999 18.2091 8.20913 20 6 20C3.79086 20 2 18.2091 2 16C2 13.7909 3.79086 12 6 12C6.72857 12 7.41165 12.1948 8 12.5351V4.61852C8 2.6404 9.88093 1.20375 11.7894 1.72423L18.7894 3.63332C20.0945 3.98928 21 5.17476 21 6.52761V18C21 20.2091 19.2091 22 17 22C14.7909 22 13 20.2091 13 18C13 15.7909 14.7909 14 17 14C17.7286 14 18.4117 14.1948 19 14.5351V9.76381L10 7.30927ZM10 4.61852C10 3.95914 10.627 3.48026 11.2631 3.65376L18.2631 5.56285C18.6982 5.6815 19 6.07666 19 6.52761V7.69077L10 5.23622V4.61852ZM8 16C8 14.8954 7.10457 14 6 14C4.89543 14 4 14.8954 4 16C4 17.1046 4.89543 18 6 18C7.10456 18 7.99999 17.1046 8 16C8 16 8 16 8 16ZM17 16C18.1046 16 19 16.8954 19 18C19 19.1046 18.1046 20 17 20C15.8954 20 15 19.1046 15 18C15 16.8954 15.8954 16 17 16Z" fill="currentColor"/>
</svg>
