<svg width="24" height="24" viewBox="0 0 24 24" fill="none" xmlns="http://www.w3.org/2000/svg">
<path fill-rule="evenodd" clip-rule="evenodd" d="M13 15C13 17.2091 11.2091 19 9 19C6.79086 19 5 17.2091 5 15C5 12.7909 6.79086 11 9 11C11.2091 11 13 12.7909 13 15ZM11 15C11 16.1046 10.1046 17 9 17C7.89543 17 7 16.1046 7 15C7 13.8954 7.89543 13 9 13C10.1046 13 11 13.8954 11 15Z" fill="currentColor"/>
<path d="M15 13C15 12.4477 15.4477 12 16 12H17C17.5523 12 18 12.4477 18 13C18 13.5523 17.5523 14 17 14H16C15.4477 14 15 13.5523 15 13Z" fill="currentColor"/>
<path d="M16 16C15.4477 16 15 16.4477 15 17C15 17.5523 15.4477 18 16 18H17C17.5523 18 18 17.5523 18 17C18 16.4477 17.5523 16 17 16H16Z" fill="currentColor"/>
<path fill-rule="evenodd" clip-rule="evenodd" d="M3.35112 1.0637C2.834 0.869778 2.25759 1.13178 2.06367 1.6489C1.86975 2.16602 2.13176 2.74244 2.64888 2.93636L13.4853 7.00003H4C2.34315 7.00003 1 8.34317 1 10V20C1 21.6569 2.34315 23 4 23H20C21.6569 23 23 21.6569 23 20V10C23 8.34317 21.6569 7.00003 20 7.00003H19.1813L3.35112 1.0637ZM3 10C3 9.44774 3.44772 9.00003 4 9.00003H20C20.5523 9.00003 21 9.44774 21 10V20C21 20.5523 20.5523 21 20 21H4C3.44772 21 3 20.5523 3 20V10Z" fill="currentColor"/>
</svg>
