<svg width="24" height="24" viewBox="0 0 24 24" fill="none" xmlns="http://www.w3.org/2000/svg">
<path fill-rule="evenodd" clip-rule="evenodd" d="M5.70711 3.29292C5.42111 3.00692 4.99099 2.92137 4.61732 3.07615C4.24364 3.23093 4 3.59557 4 4.00003V13.5858L1.29289 16.2929C0.902369 16.6834 0.902369 17.3166 1.29289 17.7071L6.29289 22.7071C6.68342 23.0977 7.31658 23.0977 7.70711 22.7071L10.4142 20H20C20.4045 20 20.7691 19.7564 20.9239 19.3827C21.0787 19.009 20.9931 18.5789 20.7071 18.2929L5.70711 3.29292ZM6 14V6.41424L17.5858 18H10C9.73478 18 9.48043 18.1054 9.29289 18.2929L7 20.5858L3.41421 17L5.70711 14.7071C5.89464 14.5196 6 14.2652 6 14Z" fill="currentColor"/>
<path d="M13 5C12.4477 5 12 5.44772 12 6C12 6.55228 12.4477 7 13 7C15.2091 7 17 8.79086 17 11C17 11.5523 17.4477 12 18 12C18.5523 12 19 11.5523 19 11C19 7.68629 16.3137 5 13 5Z" fill="currentColor"/>
</svg>
